PathFileType	4	(X/Y/Z)	C:/Users/beibeiliu/ov580/test_trc\sequence.15_training_dense_right.trc
DataRate	CameraRate	NumFrames	NumMarkers	Units	OrigDataRate	OrigDataStartFrame	OrigNumFrames
120	120	16	19	mm	120	305	348
Frame#	Time	ThumbCMC			ThumbMCP			ThumbIP			ThumbTip			IndexMCP			IndexPIP			IndexTip			MiddleMCP			MiddlePIP			MiddleTip			RingMCP			RingPIP			RingTip			PinkyMCP			PinkyPIP			PinkyTip			BackHand1			BackHand2			BackHand3	
		X0	Y0	Z0	X1	Y1	Z1	X2	Y2	Z2	X3	Y3	Z3	X4	Y4	Z4	X5	Y5	Z5	X6	Y6	Z6	X7	Y7	Z7	X8	Y8	Z8	X9	Y9	Z9	X10	Y10	Z10	X11	Y11	Z11	X12	Y12	Z12	X13	Y13	Z13	X14	Y14	Z14	X15	Y15	Z15	X16	Y16	Z16	X17	Y17	Z17	X18	Y18	Z18	
304	2.53333	228.877	38.5209	-15.6058	197.304	28.1142	-15.6812	178.408	14.5809	-19.5208	163.814	0.434016	-20.1284	199.387	6.69394	-70.3243	185.335	-4.25425	-76.8237	166.886	-20.8763	-83.9533	194.511	-13.0839	-55.1181	175.753	-14.6684	-32.6853	193.083	7.07232	-11.5229	201.687	-25.2601	-44.1484	186.364	-19.6865	-20.8127	200.413	-3.2205	-8.0275	226.153	-42.6733	-42.4094	207.705	-50.4893	-42.8731	185.704	-50.1922	-32.4817	249.189	-4.62047	-41.0303	268.04	6.22875	-25.4434	250.216	27.1205	-39.7638	
305	2.54167	220.367	39.5091	-15.3625	193.982	22.0545	-15.5923	178.695	0.977172	-24.8343	168.202	-17.338	-27.8962	208.147	2.35745	-70.4878	195.678	-12.2265	-81.1635	184.186	-30.1773	-90.9466	208.406	-17.7696	-57.5691	185.594	-23.8592	-36.0793	195.01	-3.02331	-16.2806	215.572	-30.6951	-46.0315	198.141	-30.2072	-29.1249	205.203	-7.26716	-12.5368	246.376	-36.1726	-39.5562	228.649	-56.0749	-45.4147	208.638	-57.9417	-43.9162	256.662	4.68408	-36.1075	270.143	17.229	-20.8699	245.357	33.5411	-36.2869	
306	2.55	208.709	37.2902	-18.7802	186.689	12.6842	-22.0139	175.838	-8.98479	-30.8459	173.081	-27.5822	-33.9051	210.551	-0.095081	-78.128	206.668	-17.75	-86.0823	201.309	-35.9084	-98.098	216.189	-21.852	-60.5795	193.131	-30.8778	-41.0217	198.891	-9.96141	-20.1308	227.655	-28.8069	-48.9652	207.229	-33.8798	-33.044	210.353	-11.5911	-14.0869	256.117	-27.9925	-44.1433	252.812	-46.8535	-49.3717	234.204	-67.2903	-54.0319	254.81	14.1437	-34.1785	263.684	28.2207	-13.5388	240.618	33.5484	-36.1456	
307	2.55833	201.878	32.5455	-20.8981	187.307	5.36561	-29.4882	181.393	-14.5131	-39.2497	180.632	-40.0707	-48.8727	219.567	-0.164372	-80.14	212.505	-14.7139	-97.0997	210.753	-28.7969	-108.824	221.763	-20.0306	-66.7825	201.353	-34.4912	-49.1867	198.422	-14.3311	-27.1186	236.496	-28.1769	-52.7475	213.23	-34.6549	-41.0076	209.812	-13.2079	-21.343	264.459	-20.6875	-41.4447	265.474	-38.9629	-54.4178	260.499	-56.1386	-66.6914	253.477	16.0953	-33.0298	251.705	33.3741	-14.9153	233.767	38.8109	-35.3891	
308	2.56667	197.706	28.5827	-23.4274	184.153	3.56582	-34.855	183.919	-17.5601	-48.4505	191.773	-39.1011	-59.1626	221.775	9.73566	-82.4184	223.181	-6.95743	-101.585	222.968	-17.1669	-115.047	228.979	-15.732	-71.457	212.574	-34.4232	-61.778	201.447	-17.7987	-34.972	240.881	-22.6084	-59.3792	222.063	-35.6376	-48.0661	209.255	-18.2369	-31.2107	262.703	-8.22176	-44.7397	272.614	-23.1374	-57.0136	279.351	-38.614	-74.3841	249.544	22.3253	-32.416	246.99	35.9573	-11.7309	225.876	40.2832	-33.003	
309	2.575	191.996	25.049	-23.4327	183.676	-0.802473	-46.4363	187.192	-19.3629	-63.1479	198.978	-34.1153	-70.5723	216.579	20.0513	-87.5012	222.492	9.18053	-103.816	225.44	-2.78263	-123.003	231.598	-2.53085	-76.0169	215.32	-30.4109	-69.0513	204.175	-20.8836	-42.5095	241.03	-13.5825	-66.7262	225.546	-32.0503	-58.2323	211.056	-20.004	-34.6806	265.82	-1.18609	-48.4845	273.24	-7.4736	-61.0151	284.109	-14.387	-77.8039	242.926	29.5893	-29.0108	241.031	36.5477	-5.74339	221.757	42.2136	-31.1724	
310	2.58333	185.892	20.7775	-24.7086	184.277	0.012743	-46.1978	184.298	-14.4544	-66.1542	199.613	-26.7669	-80.3564	212.8	27.2095	-86.7007	217.177	20.4386	-103.403	222.342	11.7639	-122.733	228.074	5.04308	-79.3252	219.057	-22.9163	-79.7651	201.267	-23.8268	-51.5418	243.947	-2.42458	-68.0402	223.942	-24.8789	-67.8077	209.55	-21.4664	-44.8937	264.869	7.47414	-51.6354	270.537	3.59606	-69.7821	283.739	1.86589	-84.0412	238.677	31.9587	-30.2357	233.027	34.1997	-4.24596	214.234	40.6146	-27.6856	
311	2.59167	184.987	17.9885	-21.161	178.39	0.0631409	-44.4354	184.117	-8.69809	-65.4036	191.978	-20.4424	-85.0938	209.474	31.9191	-81.8575	211.671	26.5568	-101.331	215.4	20.0904	-127.576	222.951	10.6804	-82.0947	217.215	-17.3716	-86.8876	202.324	-29.1869	-61.757	238.136	4.22837	-71.0757	225.524	-22.3557	-75.0676	209.002	-26.602	-52.657	259.684	9.80048	-49.5569	269.929	8.65189	-65.9125	277.154	12.3238	-84.4126	235.158	29.0107	-26.6497	231.871	30.8753	-2.19608	210.662	38.1861	-21.6338	
312	2.6	180.675	13.7211	-16.7077	175.917	-0.362402	-43.535	177.19	-7.85592	-68.3164	186.484	-14.9819	-87.2583	201.08	33.0282	-80.4314	206.58	28.2691	-101.501	208.72	23.6184	-120.293	219.45	15.8861	-80.7519	214.089	-11.3481	-93.7547	202.751	-33.0174	-75.3792	237.976	6.45734	-73.9767	227.65	-15.5644	-82.3275	209.342	-32.4481	-66.4207	255.817	13.027	-53.7084	263.399	11.6581	-69.1327	278.331	14.2041	-83.6066	235.873	28.9206	-22.9601	226.237	29.2353	-1.95673	204.95	38.79	-19.8916	
313	2.60833	180.177	10.2648	-15.4917	169.411	-3.57585	-40.0026	168.961	-7.83573	-63.6223	170.923	-13.9236	-84.901	197.738	29.2811	-74.6209	195.053	26.1923	-99.5059	198.327	21.6503	-119.348	219.345	16.6564	-80.0154	214.64	-5.24484	-98.1089	204.997	-33.7406	-95.2326	236.864	10.8237	-69.3806	230.856	-9.08178	-88.8996	217.245	-32.3024	-87.4552	253.271	11.231	-53.2075	259.431	12.4177	-70.5183	272.142	14.4814	-80.8124	229.429	25.6542	-25.5592	228.292	24.2707	4.81461	204.145	32.7287	-15.5282	
314	2.61667	173.659	4.99078	-8.76619	167.53	-6.52611	-33.6088	165.472	-8.03319	-61.4057	161.116	-12.755	-79.7848	188.819	24.9808	-75.9859	186.992	21.6262	-95.2834	189.581	15.0672	-117.562	211.235	16.7004	-79.0295	208.48	-1.05613	-103.515	210.028	-24.3978	-113.02	231.246	10.918	-71.2942	227.112	-1.3666	-91.8965	219.454	-23.573	-105.72	245.512	8.83338	-52.897	253.841	8.93657	-70.0997	262.507	14.5133	-84.5953	229.179	21.7947	-25.1117	221.752	21.2723	1.04553	198.375	28.1478	-14.1485	
315	2.625	175.629	0.0358801	-5.32736	164.423	-10.7237	-30.0008	159.774	-12.6263	-54.2637	149.382	-16.9666	-72.0643	184.709	16.9759	-73.1337	184.277	13.0172	-92.5699	180.031	7.58263	-119.51	205.372	13.8836	-76.7492	207.415	2.61334	-103.589	204.106	-12.8487	-121.989	228.865	8.34858	-73.5269	226.797	1.15555	-91.719	222.859	-12.2458	-114.524	246.296	4.20776	-57.33	250.341	3.08037	-72.5321	263.442	7.81859	-87.236	224.659	18.8695	-26.0376	222.527	16.9747	2.17628	197.72	25.1783	-15.0303	
316	2.63333	173.021	-3.14348	-3.10159	163.877	-13.0144	-29.4446	153.889	-16.5516	-48.1076	144.344	-19.8228	-67.4995	176.844	10.363	-73.889	174.41	5.22598	-94.9922	175.47	0.029599	-116.017	199.471	9.00991	-77.7449	201.679	3.55604	-98.7383	203.961	-7.0592	-124.345	222.31	3.87276	-71.954	225.51	-0.0679764	-92.7503	227.154	-6.69247	-115.801	242.303	-1.67954	-58.1623	246.612	-2.41117	-69.205	259.217	2.35599	-85.8129	222.339	13.4902	-21.7383	222.217	15.5508	4.46386	193.268	20.4136	-14.6923	
317	2.64167	173.119	-5.95277	-4.57627	157.797	-14.3707	-28.1168	148.818	-17.3776	-50.3237	145.009	-19.8824	-64.6888	176.47	6.89595	-71.6253	174.19	2.26577	-89.8451	170.665	-3.27049	-110.399	200.764	5.07733	-79.1228	202.22	-0.807891	-99.8357	201.778	-6.81396	-124.623	218.187	0.135243	-66.9172	223.839	-3.37152	-92.9207	223.03	-5.95329	-114.283	241.07	-7.07557	-54.43	245.234	-7.93393	-69.8176	251.982	-3.49707	-86.2755	223.687	9.69126	-26.2484	223.783	11.9521	1.34359	194.737	15.0414	-14.8031	
318	2.65	173.258	-6.26787	-4.03761	159.248	-16.3084	-22.159	149.99	-18.1004	-46.9408	141.706	-21.3481	-60.5054	178.291	3.03847	-69.6703	175.535	-2.25935	-91.2378	171.599	-5.68292	-112.724	201.486	1.21037	-76.6472	198.044	-2.26853	-96.2972	199.851	-5.29473	-124.346	220.914	-4.56401	-66.0982	220.607	-5.15719	-91.7652	220.954	-5.68412	-112.86	241.177	-11.8155	-53.549	248.033	-13.218	-66.9212	252.612	-6.96222	-84.1649	219.224	5.13621	-23.4624	221.92	6.74229	0.750665	198.287	11.5619	-14.0442	
319	2.65833	173.154	-10.0902	2.08895	160.035	-17.4736	-22.3595	148.033	-18.6365	-42.7709	136.974	-22.0859	-55.8696	179.771	-0.540796	-66.0957	175.175	-5.03062	-86.4081	167.087	-7.0862	-111.081	198.622	-1.41325	-72.6978	197.975	-4.49521	-98.5885	198.198	-5.44165	-119.318	218.789	-6.11019	-69.6704	224.788	-8.26932	-88.6598	225.265	-8.54273	-111.989	239.795	-16.1615	-51.1728	246.147	-16.6754	-66.4632	252.345	-9.9127	-80.4519	220.6	1.7556	-23.9258	225.612	4.31464	3.66976	198.298	8.76581	-11.4835	
